<?xml version="1.0" encoding="UTF-8" standalone="no"?>
<!DOCTYPE svg PUBLIC "-//W3C//DTD SVG 1.1//EN"
 "http://www.w3.org/Graphics/SVG/1.1/DTD/svg11.dtd">
<!-- Generated by graphviz version 2.38.0 (20140413.2041)
 -->
<!-- Title: controllers_diagram Pages: 1 -->
<svg width="832pt" height="763pt"
 viewBox="0.00 0.00 831.82 763.24" xmlns="http://www.w3.org/2000/svg" xmlns:xlink="http://www.w3.org/1999/xlink">
<g id="graph0" class="graph" transform="scale(1 1) rotate(0) translate(269.51 493.739)">
<title>controllers_diagram</title>
<polygon fill="white" stroke="none" points="-269.51,269.5 -269.51,-493.739 562.311,-493.739 562.311,269.5 -269.51,269.5"/>
<!-- _diagram_info -->
<g id="node1" class="node"><title>_diagram_info</title>
<text text-anchor="start" x="273.55" y="206.9" font-family="Times,serif" font-size="13.00">Controllers diagram</text>
<text text-anchor="start" x="273.55" y="219.9" font-family="Times,serif" font-size="13.00">Date: Aug 08 2014 &#45; 00:26</text>
<text text-anchor="start" x="273.55" y="232.9" font-family="Times,serif" font-size="13.00">Migration version: 20140514211305</text>
<text text-anchor="start" x="273.55" y="245.9" font-family="Times,serif" font-size="13.00">Generated by RailRoady 1.1.1</text>
<text text-anchor="start" x="273.55" y="258.9" font-family="Times,serif" font-size="13.00">http://railroady.prestonlee.com</text>
</g>
<!-- ApplicationController -->
<g id="node2" class="node"><title>ApplicationController</title>
<path fill="none" stroke="black" d="M356.353,-385.239C356.353,-385.239 471.994,-385.239 471.994,-385.239 477.994,-385.239 483.994,-391.239 483.994,-397.239 483.994,-397.239 483.994,-477.239 483.994,-477.239 483.994,-483.239 477.994,-489.239 471.994,-489.239 471.994,-489.239 356.353,-489.239 356.353,-489.239 350.353,-489.239 344.353,-483.239 344.353,-477.239 344.353,-477.239 344.353,-397.239 344.353,-397.239 344.353,-391.239 350.353,-385.239 356.353,-385.239"/>
<text text-anchor="middle" x="414.174" y="-474.039" font-family="Times,serif" font-size="14.00">ApplicationController</text>
<polyline fill="none" stroke="black" points="344.353,-467.239 483.994,-467.239 "/>
<polyline fill="none" stroke="black" points="344.353,-443.239 483.994,-443.239 "/>
<text text-anchor="start" x="352.353" y="-428.039" font-family="Times,serif" font-size="14.00">current_user</text>
<text text-anchor="start" x="352.353" y="-414.039" font-family="Times,serif" font-size="14.00">signed_in?</text>
<polyline fill="none" stroke="black" points="344.353,-407.239 483.994,-407.239 "/>
<text text-anchor="start" x="352.353" y="-392.039" font-family="Times,serif" font-size="14.00">_layout</text>
</g>
<!-- CofactorController -->
<g id="node7" class="node"><title>CofactorController</title>
<path fill="none" stroke="black" d="M447.786,-253.517C447.786,-253.517 546.311,-253.517 546.311,-253.517 552.311,-253.517 558.311,-259.517 558.311,-265.517 558.311,-265.517 558.311,-331.517 558.311,-331.517 558.311,-337.517 552.311,-343.517 546.311,-343.517 546.311,-343.517 447.786,-343.517 447.786,-343.517 441.786,-343.517 435.786,-337.517 435.786,-331.517 435.786,-331.517 435.786,-265.517 435.786,-265.517 435.786,-259.517 441.786,-253.517 447.786,-253.517"/>
<text text-anchor="middle" x="497.048" y="-328.317" font-family="Times,serif" font-size="14.00">CofactorController</text>
<polyline fill="none" stroke="black" points="435.786,-321.517 558.311,-321.517 "/>
<text text-anchor="start" x="443.786" y="-306.317" font-family="Times,serif" font-size="14.00">index</text>
<polyline fill="none" stroke="black" points="435.786,-299.517 558.311,-299.517 "/>
<polyline fill="none" stroke="black" points="435.786,-275.517 558.311,-275.517 "/>
<text text-anchor="start" x="443.786" y="-260.317" font-family="Times,serif" font-size="14.00">_layout</text>
</g>
<!-- ApplicationController&#45;&gt;CofactorController -->
<g id="edge5" class="edge"><title>ApplicationController&#45;&gt;CofactorController</title>
<path fill="none" stroke="black" d="M445.269,-385.189C453.444,-371.504 462.194,-356.859 470.13,-343.575"/>
</g>
<!-- PagesController -->
<g id="node8" class="node"><title>PagesController</title>
<path fill="none" stroke="black" d="M250.646,-190.424C250.646,-190.424 332.853,-190.424 332.853,-190.424 338.853,-190.424 344.853,-196.424 344.853,-202.424 344.853,-202.424 344.853,-268.424 344.853,-268.424 344.853,-274.424 338.853,-280.424 332.853,-280.424 332.853,-280.424 250.646,-280.424 250.646,-280.424 244.646,-280.424 238.646,-274.424 238.646,-268.424 238.646,-268.424 238.646,-202.424 238.646,-202.424 238.646,-196.424 244.646,-190.424 250.646,-190.424"/>
<text text-anchor="middle" x="291.749" y="-265.224" font-family="Times,serif" font-size="14.00">PagesController</text>
<polyline fill="none" stroke="black" points="238.646,-258.424 344.853,-258.424 "/>
<text text-anchor="start" x="246.646" y="-243.224" font-family="Times,serif" font-size="14.00">home</text>
<polyline fill="none" stroke="black" points="238.646,-236.424 344.853,-236.424 "/>
<polyline fill="none" stroke="black" points="238.646,-212.424 344.853,-212.424 "/>
<text text-anchor="start" x="246.646" y="-197.224" font-family="Times,serif" font-size="14.00">_layout</text>
</g>
<!-- ApplicationController&#45;&gt;PagesController -->
<g id="edge6" class="edge"><title>ApplicationController&#45;&gt;PagesController</title>
<path fill="none" stroke="black" d="M382.487,-385.004C362.862,-352.653 337.914,-311.525 319.145,-280.586"/>
</g>
<!-- TeamsController -->
<g id="node9" class="node"><title>TeamsController</title>
<path fill="none" stroke="black" d="M202.203,-382.3C202.203,-382.3 288.088,-382.3 288.088,-382.3 294.088,-382.3 300.088,-388.3 300.088,-394.3 300.088,-394.3 300.088,-460.3 300.088,-460.3 300.088,-466.3 294.088,-472.3 288.088,-472.3 288.088,-472.3 202.203,-472.3 202.203,-472.3 196.203,-472.3 190.203,-466.3 190.203,-460.3 190.203,-460.3 190.203,-394.3 190.203,-394.3 190.203,-388.3 196.203,-382.3 202.203,-382.3"/>
<text text-anchor="middle" x="245.145" y="-457.1" font-family="Times,serif" font-size="14.00">TeamsController</text>
<polyline fill="none" stroke="black" points="190.203,-450.3 300.088,-450.3 "/>
<text text-anchor="start" x="198.203" y="-435.1" font-family="Times,serif" font-size="14.00">show</text>
<polyline fill="none" stroke="black" points="190.203,-428.3 300.088,-428.3 "/>
<polyline fill="none" stroke="black" points="190.203,-404.3 300.088,-404.3 "/>
<text text-anchor="start" x="198.203" y="-389.1" font-family="Times,serif" font-size="14.00">_layout</text>
</g>
<!-- ApplicationController&#45;&gt;TeamsController -->
<g id="edge7" class="edge"><title>ApplicationController&#45;&gt;TeamsController</title>
<path fill="none" stroke="black" d="M343.959,-433.11C329.355,-432.251 314.165,-431.358 300.202,-430.537"/>
</g>
<!-- CMS::FileUploadsController -->
<g id="node3" class="node"><title>CMS::FileUploadsController</title>
<path fill="none" stroke="black" d="M-253.51,171.99C-253.51,171.99 -98.1721,171.99 -98.1721,171.99 -92.1721,171.99 -86.1721,165.99 -86.1721,159.99 -86.1721,159.99 -86.1721,65.9896 -86.1721,65.9896 -86.1721,59.9896 -92.1721,53.9896 -98.1721,53.9896 -98.1721,53.9896 -253.51,53.9896 -253.51,53.9896 -259.51,53.9896 -265.51,59.9896 -265.51,65.9896 -265.51,65.9896 -265.51,159.99 -265.51,159.99 -265.51,165.99 -259.51,171.99 -253.51,171.99"/>
<text text-anchor="middle" x="-175.841" y="69.1896" font-family="Times,serif" font-size="14.00">CMS::FileUploadsController</text>
<polyline fill="none" stroke="black" points="-265.51,75.9896 -86.1721,75.9896 "/>
<polyline fill="none" stroke="black" points="-265.51,99.9896 -86.1721,99.9896 "/>
<text text-anchor="start" x="-257.51" y="115.19" font-family="Times,serif" font-size="14.00">file_upload_params</text>
<text text-anchor="start" x="-257.51" y="129.19" font-family="Times,serif" font-size="14.00">subject</text>
<text text-anchor="start" x="-257.51" y="143.19" font-family="Times,serif" font-size="14.00">subject_params</text>
<polyline fill="none" stroke="black" points="-265.51,149.99 -86.1721,149.99 "/>
<text text-anchor="start" x="-257.51" y="165.19" font-family="Times,serif" font-size="14.00">_layout</text>
</g>
<!-- CMS::PageAreasController -->
<g id="node4" class="node"><title>CMS::PageAreasController</title>
<path fill="none" stroke="black" d="M100.919,-12.6372C100.919,-12.6372 247.678,-12.6372 247.678,-12.6372 253.678,-12.6372 259.678,-18.6372 259.678,-24.6372 259.678,-24.6372 259.678,-118.637 259.678,-118.637 259.678,-124.637 253.678,-130.637 247.678,-130.637 247.678,-130.637 100.919,-130.637 100.919,-130.637 94.9189,-130.637 88.9189,-124.637 88.9189,-118.637 88.9189,-118.637 88.9189,-24.6372 88.9189,-24.6372 88.9189,-18.6372 94.9189,-12.6372 100.919,-12.6372"/>
<text text-anchor="middle" x="174.298" y="-115.437" font-family="Times,serif" font-size="14.00">CMS::PageAreasController</text>
<polyline fill="none" stroke="black" points="88.9189,-108.637 259.678,-108.637 "/>
<polyline fill="none" stroke="black" points="88.9189,-84.6372 259.678,-84.6372 "/>
<text text-anchor="start" x="96.9189" y="-69.4372" font-family="Times,serif" font-size="14.00">page_area_params</text>
<text text-anchor="start" x="96.9189" y="-55.4372" font-family="Times,serif" font-size="14.00">subject</text>
<text text-anchor="start" x="96.9189" y="-41.4372" font-family="Times,serif" font-size="14.00">subject_params</text>
<polyline fill="none" stroke="black" points="88.9189,-34.6372 259.678,-34.6372 "/>
<text text-anchor="start" x="96.9189" y="-19.4372" font-family="Times,serif" font-size="14.00">_layout</text>
</g>
<!-- CMS::PagesController -->
<g id="node5" class="node"><title>CMS::PagesController</title>
<path fill="none" stroke="black" d="M56.3004,227.668C56.3004,227.668 175.859,227.668 175.859,227.668 181.859,227.668 187.859,221.668 187.859,215.668 187.859,215.668 187.859,121.668 187.859,121.668 187.859,115.668 181.859,109.668 175.859,109.668 175.859,109.668 56.3004,109.668 56.3004,109.668 50.3004,109.668 44.3004,115.668 44.3004,121.668 44.3004,121.668 44.3004,215.668 44.3004,215.668 44.3004,221.668 50.3004,227.668 56.3004,227.668"/>
<text text-anchor="middle" x="116.08" y="124.868" font-family="Times,serif" font-size="14.00">CMS::PagesController</text>
<polyline fill="none" stroke="black" points="44.3004,131.668 187.859,131.668 "/>
<polyline fill="none" stroke="black" points="44.3004,155.668 187.859,155.668 "/>
<text text-anchor="start" x="52.3004" y="170.868" font-family="Times,serif" font-size="14.00">page_params</text>
<text text-anchor="start" x="52.3004" y="184.868" font-family="Times,serif" font-size="14.00">subject</text>
<text text-anchor="start" x="52.3004" y="198.868" font-family="Times,serif" font-size="14.00">subject_params</text>
<polyline fill="none" stroke="black" points="44.3004,205.668 187.859,205.668 "/>
<text text-anchor="start" x="52.3004" y="220.868" font-family="Times,serif" font-size="14.00">_layout</text>
</g>
<!-- CMS::TeamsController -->
<g id="node6" class="node"><title>CMS::TeamsController</title>
<path fill="none" stroke="black" d="M-178.684,-67.9461C-178.684,-67.9461 -55.4476,-67.9461 -55.4476,-67.9461 -49.4476,-67.9461 -43.4476,-73.9461 -43.4476,-79.9461 -43.4476,-79.9461 -43.4476,-173.946 -43.4476,-173.946 -43.4476,-179.946 -49.4476,-185.946 -55.4476,-185.946 -55.4476,-185.946 -178.684,-185.946 -178.684,-185.946 -184.684,-185.946 -190.684,-179.946 -190.684,-173.946 -190.684,-173.946 -190.684,-79.9461 -190.684,-79.9461 -190.684,-73.9461 -184.684,-67.9461 -178.684,-67.9461"/>
<text text-anchor="middle" x="-117.066" y="-170.746" font-family="Times,serif" font-size="14.00">CMS::TeamsController</text>
<polyline fill="none" stroke="black" points="-190.684,-163.946 -43.4476,-163.946 "/>
<polyline fill="none" stroke="black" points="-190.684,-139.946 -43.4476,-139.946 "/>
<text text-anchor="start" x="-182.684" y="-124.746" font-family="Times,serif" font-size="14.00">subject</text>
<text text-anchor="start" x="-182.684" y="-110.746" font-family="Times,serif" font-size="14.00">subject_params</text>
<text text-anchor="start" x="-182.684" y="-96.7461" font-family="Times,serif" font-size="14.00">team_params</text>
<polyline fill="none" stroke="black" points="-190.684,-89.9461 -43.4476,-89.9461 "/>
<text text-anchor="start" x="-182.684" y="-74.7461" font-family="Times,serif" font-size="14.00">_layout</text>
</g>
<!-- CMS::BaseController -->
<g id="node10" class="node"><title>CMS::BaseController</title>
<ellipse fill="none" stroke="black" cx="-0.507462" cy="21.3233" rx="87.4827" ry="18"/>
<text text-anchor="middle" x="-0.507462" y="25.5233" font-family="Times,serif" font-size="14.00">CMS::BaseController</text>
</g>
<!-- CMS::BaseController&#45;&gt;CMS::FileUploadsController -->
<g id="edge1" class="edge"><title>CMS::BaseController&#45;&gt;CMS::FileUploadsController</title>
<path fill="none" stroke="black" d="M-32.6663,38.1363C-47.8911,46.096 -66.9101,56.0394 -86.0636,66.053"/>
</g>
<!-- CMS::BaseController&#45;&gt;CMS::PageAreasController -->
<g id="edge2" class="edge"><title>CMS::BaseController&#45;&gt;CMS::PageAreasController</title>
<path fill="none" stroke="black" d="M31.1485,4.48888C47.4808,-4.19651 68.2702,-15.2522 88.9097,-26.2281"/>
</g>
<!-- CMS::BaseController&#45;&gt;CMS::PagesController -->
<g id="edge3" class="edge"><title>CMS::BaseController&#45;&gt;CMS::PagesController</title>
<path fill="none" stroke="black" d="M13.5557,39.0965C27.3642,56.548 49.2054,84.1512 69.1868,109.404"/>
</g>
<!-- CMS::BaseController&#45;&gt;CMS::TeamsController -->
<g id="edge4" class="edge"><title>CMS::BaseController&#45;&gt;CMS::TeamsController</title>
<path fill="none" stroke="black" d="M-14.5671,3.43856C-28.4328,-14.1994 -50.3997,-42.1427 -70.4472,-67.6444"/>
</g>
</g>
</svg>
