<?xml version="1.0" encoding="UTF-8" standalone="no"?>
<!DOCTYPE svg PUBLIC "-//W3C//DTD SVG 1.1//EN"
 "http://www.w3.org/Graphics/SVG/1.1/DTD/svg11.dtd">
<!-- Generated by graphviz version 2.38.0 (20140413.2041)
 -->
<!-- Title: models_diagram Pages: 1 -->
<svg width="607pt" height="240pt"
 viewBox="0.00 0.00 607.48 240.00" xmlns="http://www.w3.org/2000/svg" xmlns:xlink="http://www.w3.org/1999/xlink">
<g id="graph0" class="graph" transform="scale(1 1) rotate(0) translate(4 236)">
<title>models_diagram</title>
<polygon fill="white" stroke="none" points="-4,4 -4,-236 603.479,-236 603.479,4 -4,4"/>
<!-- _diagram_info -->
<g id="node1" class="node"><title>_diagram_info</title>
<text text-anchor="start" x="8" y="-217.6" font-family="Times,serif" font-size="13.00">Models diagram</text>
<text text-anchor="start" x="8" y="-204.6" font-family="Times,serif" font-size="13.00">Date: Aug 08 2014 &#45; 00:26</text>
<text text-anchor="start" x="8" y="-191.6" font-family="Times,serif" font-size="13.00">Migration version: 20140514211305</text>
<text text-anchor="start" x="8" y="-178.6" font-family="Times,serif" font-size="13.00">Generated by RailRoady 1.1.1</text>
<text text-anchor="start" x="8" y="-165.6" font-family="Times,serif" font-size="13.00">http://railroady.prestonlee.com</text>
</g>
<!-- FileUpload -->
<g id="node2" class="node"><title>FileUpload</title>
<ellipse fill="none" stroke="black" cx="166.45" cy="-104" rx="49.7964" ry="18"/>
<text text-anchor="middle" x="166.45" y="-99.8" font-family="Times,serif" font-size="14.00">FileUpload</text>
</g>
<!-- Page -->
<g id="node3" class="node"><title>Page</title>
<ellipse fill="none" stroke="black" cx="261.45" cy="-104" rx="27.0958" ry="18"/>
<text text-anchor="middle" x="261.45" y="-99.8" font-family="Times,serif" font-size="14.00">Page</text>
</g>
<!-- PageArea -->
<g id="node4" class="node"><title>PageArea</title>
<ellipse fill="none" stroke="black" cx="351.45" cy="-104" rx="44.4578" ry="18"/>
<text text-anchor="middle" x="351.45" y="-99.8" font-family="Times,serif" font-size="14.00">PageArea</text>
</g>
<!-- Team -->
<g id="node5" class="node"><title>Team</title>
<ellipse fill="none" stroke="black" cx="443.45" cy="-104" rx="29.7411" ry="18"/>
<text text-anchor="middle" x="443.45" y="-99.8" font-family="Times,serif" font-size="14.00">Team</text>
</g>
<!-- CMS::Page -->
<g id="node8" class="node"><title>CMS::Page</title>
<ellipse fill="none" stroke="black" cx="443.45" cy="-18" rx="50.7828" ry="18"/>
<text text-anchor="middle" x="443.45" y="-13.8" font-family="Times,serif" font-size="14.00">CMS::Page</text>
</g>
<!-- Team&#45;&gt;CMS::Page -->
<g id="edge4" class="edge"><title>Team&#45;&gt;CMS::Page</title>
<path fill="none" stroke="#43fe8d" d="M443.45,-77.2567C443.45,-67.4415 443.45,-56.2256 443.45,-46.2729"/>
<ellipse fill="none" stroke="#43fe8d" cx="443.45" cy="-81.5951" rx="4" ry="4"/>
<polygon fill="#43fe8d" stroke="#43fe8d" points="443.45,-46.0952 447.95,-36.0951 443.45,-41.0952 443.45,-36.0952 443.45,-36.0952 443.45,-36.0952 443.45,-41.0952 438.95,-36.0952 443.45,-46.0952 443.45,-46.0952"/>
<text text-anchor="middle" x="459.388" y="-56.8" font-family="Times,serif" font-size="14.00">pages</text>
</g>
<!-- OauthUser -->
<g id="node6" class="node"><title>OauthUser</title>
<polygon fill="none" stroke="black" points="567.599,-122 491.3,-122 491.3,-86 567.599,-86 567.599,-122"/>
<text text-anchor="middle" x="529.45" y="-99.8" font-family="Times,serif" font-size="14.00">OauthUser</text>
</g>
<!-- ActiveRecord::Base -->
<g id="node7" class="node"><title>ActiveRecord::Base</title>
<ellipse fill="none" stroke="black" cx="306.45" cy="-195.5" rx="81.1422" ry="18"/>
<text text-anchor="middle" x="306.45" y="-191.3" font-family="Times,serif" font-size="14.00">ActiveRecord::Base</text>
</g>
<!-- ActiveRecord::Base&#45;&gt;FileUpload -->
<g id="edge1" class="edge"><title>ActiveRecord::Base&#45;&gt;FileUpload</title>
<path fill="none" stroke="black" d="M281.097,-178.292C255.251,-161.77 215.469,-136.337 190.214,-120.192"/>
</g>
<!-- ActiveRecord::Base&#45;&gt;Page -->
<g id="edge2" class="edge"><title>ActiveRecord::Base&#45;&gt;Page</title>
<path fill="none" stroke="black" d="M297.773,-177.243C289.652,-161.09 277.606,-137.134 269.645,-121.299"/>
</g>
<!-- ActiveRecord::Base&#45;&gt;PageArea -->
<g id="edge3" class="edge"><title>ActiveRecord::Base&#45;&gt;PageArea</title>
<path fill="none" stroke="black" d="M315.126,-177.243C323.146,-161.293 334.991,-137.735 342.952,-121.9"/>
</g>
<!-- ActiveRecord::Base&#45;&gt;Team -->
<g id="edge5" class="edge"><title>ActiveRecord::Base&#45;&gt;Team</title>
<path fill="none" stroke="black" d="M331.259,-178.292C357.785,-160.964 399.311,-133.835 423.707,-117.898"/>
</g>
<!-- SimpleDelegator -->
<g id="node9" class="node"><title>SimpleDelegator</title>
<ellipse fill="none" stroke="black" cx="529.45" cy="-195.5" rx="70.0582" ry="18"/>
<text text-anchor="middle" x="529.45" y="-191.3" font-family="Times,serif" font-size="14.00">SimpleDelegator</text>
</g>
<!-- SimpleDelegator&#45;&gt;OauthUser -->
<g id="edge6" class="edge"><title>SimpleDelegator&#45;&gt;OauthUser</title>
<path fill="none" stroke="black" d="M529.45,-177.243C529.45,-161.395 529.45,-138.035 529.45,-122.204"/>
</g>
</g>
</svg>
