<?xml version="1.0" encoding="UTF-8" standalone="no"?>
<!DOCTYPE svg PUBLIC "-//W3C//DTD SVG 1.1//EN"
 "http://www.w3.org/Graphics/SVG/1.1/DTD/svg11.dtd">
<!-- Generated by graphviz version 2.38.0 (20140413.2041)
 -->
<!-- Title: models_diagram Pages: 1 -->
<svg width="733pt" height="319pt"
 viewBox="0.00 0.00 733.48 319.00" xmlns="http://www.w3.org/2000/svg" xmlns:xlink="http://www.w3.org/1999/xlink">
<g id="graph0" class="graph" transform="scale(1 1) rotate(0) translate(4 315)">
<title>models_diagram</title>
<polygon fill="white" stroke="none" points="-4,4 -4,-315 729.479,-315 729.479,4 -4,4"/>
<!-- _diagram_info -->
<g id="node1" class="node"><title>_diagram_info</title>
<text text-anchor="start" x="8" y="-296.6" font-family="Times,serif" font-size="13.00">Models diagram</text>
<text text-anchor="start" x="8" y="-283.6" font-family="Times,serif" font-size="13.00">Date: Aug 08 2014 &#45; 00:26</text>
<text text-anchor="start" x="8" y="-270.6" font-family="Times,serif" font-size="13.00">Migration version: 20140514211305</text>
<text text-anchor="start" x="8" y="-257.6" font-family="Times,serif" font-size="13.00">Generated by RailRoady 1.1.1</text>
<text text-anchor="start" x="8" y="-244.6" font-family="Times,serif" font-size="13.00">http://railroady.prestonlee.com</text>
</g>
<!-- FileUpload -->
<g id="node2" class="node"><title>FileUpload</title>
<path fill="none" stroke="black" d="M24.9443,-86.5C24.9443,-86.5 133.955,-86.5 133.955,-86.5 139.955,-86.5 145.955,-92.5 145.955,-98.5 145.955,-98.5 145.955,-188.5 145.955,-188.5 145.955,-194.5 139.955,-200.5 133.955,-200.5 133.955,-200.5 24.9443,-200.5 24.9443,-200.5 18.9443,-200.5 12.9443,-194.5 12.9443,-188.5 12.9443,-188.5 12.9443,-98.5 12.9443,-98.5 12.9443,-92.5 18.9443,-86.5 24.9443,-86.5"/>
<text text-anchor="middle" x="79.4497" y="-185.3" font-family="Times,serif" font-size="14.00">FileUpload</text>
<polyline fill="none" stroke="black" points="12.9443,-178.5 145.955,-178.5 "/>
<text text-anchor="start" x="20.9443" y="-163.3" font-family="Times,serif" font-size="14.00">id :integer</text>
<text text-anchor="start" x="20.9443" y="-149.3" font-family="Times,serif" font-size="14.00">name :string</text>
<text text-anchor="start" x="20.9443" y="-135.3" font-family="Times,serif" font-size="14.00">file :string</text>
<text text-anchor="start" x="20.9443" y="-121.3" font-family="Times,serif" font-size="14.00">description :text</text>
<text text-anchor="start" x="20.9443" y="-107.3" font-family="Times,serif" font-size="14.00">created_at :datetime</text>
<text text-anchor="start" x="20.9443" y="-93.3" font-family="Times,serif" font-size="14.00">updated_at :datetime</text>
</g>
<!-- Page -->
<g id="node3" class="node"><title>Page</title>
<path fill="none" stroke="black" d="M175.944,-86.5C175.944,-86.5 284.955,-86.5 284.955,-86.5 290.955,-86.5 296.955,-92.5 296.955,-98.5 296.955,-98.5 296.955,-188.5 296.955,-188.5 296.955,-194.5 290.955,-200.5 284.955,-200.5 284.955,-200.5 175.944,-200.5 175.944,-200.5 169.944,-200.5 163.944,-194.5 163.944,-188.5 163.944,-188.5 163.944,-98.5 163.944,-98.5 163.944,-92.5 169.944,-86.5 175.944,-86.5"/>
<text text-anchor="middle" x="230.45" y="-185.3" font-family="Times,serif" font-size="14.00">Page</text>
<polyline fill="none" stroke="black" points="163.944,-178.5 296.955,-178.5 "/>
<text text-anchor="start" x="171.944" y="-163.3" font-family="Times,serif" font-size="14.00">id :integer</text>
<text text-anchor="start" x="171.944" y="-149.3" font-family="Times,serif" font-size="14.00">name :string</text>
<text text-anchor="start" x="171.944" y="-135.3" font-family="Times,serif" font-size="14.00">url :string</text>
<text text-anchor="start" x="171.944" y="-121.3" font-family="Times,serif" font-size="14.00">team_id :integer</text>
<text text-anchor="start" x="171.944" y="-107.3" font-family="Times,serif" font-size="14.00">created_at :datetime</text>
<text text-anchor="start" x="171.944" y="-93.3" font-family="Times,serif" font-size="14.00">updated_at :datetime</text>
</g>
<!-- PageArea -->
<g id="node4" class="node"><title>PageArea</title>
<path fill="none" stroke="black" d="M326.944,-86.5C326.944,-86.5 435.955,-86.5 435.955,-86.5 441.955,-86.5 447.955,-92.5 447.955,-98.5 447.955,-98.5 447.955,-188.5 447.955,-188.5 447.955,-194.5 441.955,-200.5 435.955,-200.5 435.955,-200.5 326.944,-200.5 326.944,-200.5 320.944,-200.5 314.944,-194.5 314.944,-188.5 314.944,-188.5 314.944,-98.5 314.944,-98.5 314.944,-92.5 320.944,-86.5 326.944,-86.5"/>
<text text-anchor="middle" x="381.45" y="-185.3" font-family="Times,serif" font-size="14.00">PageArea</text>
<polyline fill="none" stroke="black" points="314.944,-178.5 447.955,-178.5 "/>
<text text-anchor="start" x="322.944" y="-163.3" font-family="Times,serif" font-size="14.00">id :integer</text>
<text text-anchor="start" x="322.944" y="-149.3" font-family="Times,serif" font-size="14.00">name :string</text>
<text text-anchor="start" x="322.944" y="-135.3" font-family="Times,serif" font-size="14.00">description :string</text>
<text text-anchor="start" x="322.944" y="-121.3" font-family="Times,serif" font-size="14.00">content :text</text>
<text text-anchor="start" x="322.944" y="-107.3" font-family="Times,serif" font-size="14.00">created_at :datetime</text>
<text text-anchor="start" x="322.944" y="-93.3" font-family="Times,serif" font-size="14.00">updated_at :datetime</text>
</g>
<!-- Team -->
<g id="node5" class="node"><title>Team</title>
<path fill="none" stroke="black" d="M477.944,-86.5C477.944,-86.5 586.955,-86.5 586.955,-86.5 592.955,-86.5 598.955,-92.5 598.955,-98.5 598.955,-98.5 598.955,-188.5 598.955,-188.5 598.955,-194.5 592.955,-200.5 586.955,-200.5 586.955,-200.5 477.944,-200.5 477.944,-200.5 471.944,-200.5 465.944,-194.5 465.944,-188.5 465.944,-188.5 465.944,-98.5 465.944,-98.5 465.944,-92.5 471.944,-86.5 477.944,-86.5"/>
<text text-anchor="middle" x="532.45" y="-185.3" font-family="Times,serif" font-size="14.00">Team</text>
<polyline fill="none" stroke="black" points="465.944,-178.5 598.955,-178.5 "/>
<text text-anchor="start" x="473.944" y="-163.3" font-family="Times,serif" font-size="14.00">id :integer</text>
<text text-anchor="start" x="473.944" y="-149.3" font-family="Times,serif" font-size="14.00">name :string</text>
<text text-anchor="start" x="473.944" y="-135.3" font-family="Times,serif" font-size="14.00">created_at :datetime</text>
<text text-anchor="start" x="473.944" y="-121.3" font-family="Times,serif" font-size="14.00">updated_at :datetime</text>
<text text-anchor="start" x="473.944" y="-107.3" font-family="Times,serif" font-size="14.00">description :text</text>
<text text-anchor="start" x="473.944" y="-93.3" font-family="Times,serif" font-size="14.00">slug :string</text>
</g>
<!-- CMS::Page -->
<g id="node8" class="node"><title>CMS::Page</title>
<ellipse fill="none" stroke="black" cx="532.45" cy="-18" rx="50.7828" ry="18"/>
<text text-anchor="middle" x="532.45" y="-13.8" font-family="Times,serif" font-size="14.00">CMS::Page</text>
</g>
<!-- Team&#45;&gt;CMS::Page -->
<g id="edge4" class="edge"><title>Team&#45;&gt;CMS::Page</title>
<path fill="none" stroke="#2d4ea0" d="M532.45,-78.0479C532.45,-66.8829 532.45,-55.836 532.45,-46.3708"/>
<ellipse fill="none" stroke="#2d4ea0" cx="532.45" cy="-82.171" rx="4" ry="4"/>
<polygon fill="#2d4ea0" stroke="#2d4ea0" points="532.45,-46.0739 536.95,-36.0738 532.45,-41.0739 532.45,-36.0739 532.45,-36.0739 532.45,-36.0739 532.45,-41.0739 527.95,-36.0739 532.45,-46.0739 532.45,-46.0739"/>
<text text-anchor="middle" x="548.388" y="-56.8" font-family="Times,serif" font-size="14.00">pages</text>
</g>
<!-- OauthUser -->
<g id="node6" class="node"><title>OauthUser</title>
<polygon fill="none" stroke="black" points="617.125,-121.5 617.125,-165.5 693.774,-165.5 693.774,-121.5 617.125,-121.5"/>
<text text-anchor="middle" x="655.45" y="-150.3" font-family="Times,serif" font-size="14.00">OauthUser</text>
<polyline fill="none" stroke="black" points="617.125,-143.5 693.774,-143.5 "/>
<text text-anchor="middle" x="655.45" y="-128.3" font-family="Times,serif" font-size="14.00"> </text>
</g>
<!-- ActiveRecord::Base -->
<g id="node7" class="node"><title>ActiveRecord::Base</title>
<ellipse fill="none" stroke="black" cx="306.45" cy="-274.5" rx="81.1422" ry="18"/>
<text text-anchor="middle" x="306.45" y="-270.3" font-family="Times,serif" font-size="14.00">ActiveRecord::Base</text>
</g>
<!-- ActiveRecord::Base&#45;&gt;FileUpload -->
<g id="edge1" class="edge"><title>ActiveRecord::Base&#45;&gt;FileUpload</title>
<path fill="none" stroke="black" d="M269.449,-258.339C237.99,-244.869 192.069,-223.824 154.45,-201 151.662,-199.309 148.852,-197.537 146.041,-195.707"/>
</g>
<!-- ActiveRecord::Base&#45;&gt;Page -->
<g id="edge2" class="edge"><title>ActiveRecord::Base&#45;&gt;Page</title>
<path fill="none" stroke="black" d="M296.357,-256.37C287.919,-242.046 275.387,-220.775 263.51,-200.616"/>
</g>
<!-- ActiveRecord::Base&#45;&gt;PageArea -->
<g id="edge3" class="edge"><title>ActiveRecord::Base&#45;&gt;PageArea</title>
<path fill="none" stroke="black" d="M316.409,-256.37C324.737,-242.046 337.104,-220.775 348.824,-200.616"/>
</g>
<!-- ActiveRecord::Base&#45;&gt;Team -->
<g id="edge5" class="edge"><title>ActiveRecord::Base&#45;&gt;Team</title>
<path fill="none" stroke="black" d="M343.198,-258.301C374.446,-244.808 420.061,-223.75 457.45,-201 460.235,-199.305 463.043,-197.53 465.853,-195.698"/>
</g>
<!-- SimpleDelegator -->
<g id="node9" class="node"><title>SimpleDelegator</title>
<ellipse fill="none" stroke="black" cx="655.45" cy="-274.5" rx="70.0582" ry="18"/>
<text text-anchor="middle" x="655.45" y="-270.3" font-family="Times,serif" font-size="14.00">SimpleDelegator</text>
</g>
<!-- SimpleDelegator&#45;&gt;OauthUser -->
<g id="edge6" class="edge"><title>SimpleDelegator&#45;&gt;OauthUser</title>
<path fill="none" stroke="black" d="M655.45,-256.37C655.45,-232.93 655.45,-190.89 655.45,-165.557"/>
</g>
</g>
</svg>
